<?xml version="1.0" encoding="utf-8"?>
<!-- Generator: Adobe Illustrator 15.0.0, SVG Export Plug-In  -->
<!DOCTYPE svg PUBLIC "-//W3C//DTD SVG 1.1//EN" "http://www.w3.org/Graphics/SVG/1.1/DTD/svg11.dtd" [
	<!ENTITY ns_flows "http://ns.adobe.com/Flows/1.0/">
]>
<svg version="1.1"
	 xmlns="http://www.w3.org/2000/svg" xmlns:xlink="http://www.w3.org/1999/xlink" xmlns:a="http://ns.adobe.com/AdobeSVGViewerExtensions/3.0/"
	 x="0px" y="0px" width="395px" height="47px" viewBox="-0.0002441 0.0002441 395 47"
	 overflow="visible" enable-background="new -0.0002441 0.0002441 395 47" xml:space="preserve">
<defs>
</defs>
<path fill="#FFFFFF" d="M13.5849609,36.6269531c-6.4794922,0-11.6171875-1.4882812-12.4326172-1.7763672
	c-0.5283203-0.1914062-0.8164062-0.6240234-0.8164062-1.0556641v-0.2402344l0.671875-3.5517578
	c0.0966797-0.5761719,0.4326172-0.7685547,0.8164062-0.7685547c0.1435547,0,0.2880859,0.0488281,0.4316406,0.0488281
	c1.0566406,0.2392578,5.953125,1.6318359,10.3212891,1.6318359c3.7919922,0,6.8642578-1.0078125,6.8642578-4.65625
	c0-3.7919922-3.4082031-4.1279297-7.7763672-4.7998047C6.671875,20.6894531,0,19.2021484,0,10.9443359
	C0,2.3994141,6.0966797,0.0957031,13.7773438,0.0957031c5.6171875,0,10.3691406,1.2958984,11.4726562,1.6318359
	c0.5761719,0.1445312,0.9599609,0.5283203,0.9599609,1.0566406v0.2392578l-0.7197266,3.5527344
	c-0.0478516,0.3837891-0.3837891,0.7197266-0.8164062,0.7197266c-0.0478516,0-0.0957031,0-0.1435547-0.0478516
	c-2.7841797-0.5761719-6.0478516-1.4404297-9.9375-1.4404297c-3.359375,0-6.6728516,0.6240234-6.6728516,4.3203125
	c0,3.6474609,3.7451172,4.0810547,7.8730469,4.7050781c5.5693359,0.8642578,11.8095703,1.8720703,11.8095703,10.8955078
	C27.6025391,34.0830078,20.8818359,36.6269531,13.5849609,36.6269531z"/>
<path fill="#FFFFFF" d="M44.4960938,36.7226562c-10.8486328,0-12.1923828-5.8085938-12.1923828-13.2011719
	c0-7.4394531,1.34375-13.2490234,12.1923828-13.2490234c10.8007812,0,12.1933594,5.8095703,12.1933594,13.2490234
	C56.6894531,30.9150391,55.296875,36.7226562,44.4960938,36.7226562z M44.4960938,15.2646484
	c-4.4638672,0-4.65625,2.5917969-4.65625,8.2568359c0,5.6171875,0.1923828,8.2089844,4.65625,8.2089844
	c4.4169922,0,4.65625-2.5917969,4.65625-8.2089844C49.1523438,17.8564453,48.9130859,15.2646484,44.4960938,15.2646484z"/>
<path fill="#FFFFFF" d="M73.2958984,36.7226562c-7.4882812,0-11.4726562-2.1601562-11.4726562-9.0732422v-15.3125
	c0-0.671875,0.2402344-1.0556641,0.8642578-1.1523438l5.4726562-0.9121094h0.2402344
	c0.4794922,0,0.8154297,0.2402344,0.8154297,0.8642578V27.9375c0,2.5439453,0.8642578,3.8886719,4.0800781,3.8886719
	c3.5039062,0,4.0810547-1.6806641,4.0810547-3.8886719V12.3369141c0-0.671875,0.2402344-1.0078125,0.8642578-1.1523438
	l5.4726562-0.8642578c0.0966797-0.0478516,0.1445312-0.0478516,0.2402344-0.0478516
	c0.4804688,0,0.8164062,0.2880859,0.8164062,0.8642578v16.4648438
	C84.7695312,34.0351562,81.2167969,36.7226562,73.2958984,36.7226562z"/>
<path fill="#FFFFFF" d="M113.0888672,36.0986328h-5.8554688c-0.4804688,0-0.8164062-0.2880859-0.8164062-0.7197266V18.7216797
	c0-2.6396484-1.0556641-3.5039062-3.2636719-3.5039062c-2.2558594,0-4.8486328,0.6240234-4.8486328,0.6240234v19.5380859
	c0,0.4316406-0.2880859,0.7197266-0.7685547,0.7197266h-5.8554688c-0.4804688,0-0.7685547-0.2880859-0.7685547-0.7197266V14.4501953
	c0-1.8242188,1.2001953-2.4003906,3.984375-3.0722656c2.3994141-0.5761719,6.1914062-1.1044922,9.2167969-1.1044922
	c6.0966797,0,9.7451172,1.4404297,9.7451172,7.4404297v17.6660156
	C113.8574219,35.8105469,113.5214844,36.0986328,113.0888672,36.0986328z"/>
<path fill="#FFFFFF" d="M139.9189453,35.6191406c-2.3037109,0.671875-5.2792969,1.1035156-8.2568359,1.1035156
	c-9.4091797,0-12.6728516-2.9755859-12.6728516-13.0087891c0-8.3046875,1.9677734-13.4414062,10.3691406-13.4414062
	c3.359375,0,5.953125,0.7685547,6.4794922,0.8642578l-0.5273438-2.9287109V2.0634766
	c0-0.671875,0.2392578-1.0556641,0.9121094-1.1513672L141.6474609,0h0.2880859c0.4794922,0,0.8154297,0.2402344,0.8154297,0.8154297
	V31.875C142.7519531,33.1708984,142.6083984,34.8505859,139.9189453,35.6191406z M135.3115234,15.6972656
	c0,0-2.1123047-0.4326172-3.8886719-0.4326172c-3.6474609,0-4.9433594,0.7197266-4.9433594,8.0175781
	c0,7.6806641,1.4873047,8.4482422,5.2314453,8.4482422c1.8720703,0,3.6005859-0.4794922,3.6005859-0.4794922V15.6972656z"/>
<path fill="#FFFFFF" d="M192.2880859,33.8427734c0,0.3359375-0.1914062,0.671875-0.9121094,0.9121094
	c-1.7275391,0.5283203-5.2792969,1.6318359-11.2802734,1.6318359c-12.2412109,0-16.5625-5.3291016-16.5625-18.0976562
	c0-12.8173828,4.3203125-18.0986328,16.5625-18.0986328c6,0,9.5527344,1.1523438,11.2802734,1.6806641
	c0.7207031,0.2392578,0.9121094,0.6240234,0.9121094,0.9599609c0,0.0957031-0.0478516,0.1914062-0.0478516,0.3359375
	l-0.7197266,3.6474609c-0.0966797,0.3847656-0.3359375,0.5761719-0.7685547,0.5761719c-0.1435547,0-0.2880859,0-0.4316406-0.0478516
	c-1.4404297-0.3837891-5.1845703-1.3916016-8.7851562-1.3916016c-8.0634766,0-9.8886719,3.6953125-9.8886719,12.3369141
	c0,8.5927734,1.8242188,12.3369141,9.8886719,12.3369141c3.6005859,0,7.3447266-0.9121094,8.7851562-1.2480469
	c0.1435547-0.0478516,0.2880859-0.0957031,0.4316406-0.0957031c0.4326172,0,0.671875,0.2392578,0.7685547,0.6240234
	l0.7197266,3.5996094C192.2402344,33.6025391,192.2880859,33.6992188,192.2880859,33.8427734z"/>
<path fill="#FFFFFF" d="M214.75,36.0507812c-1.7753906,0.4316406-4.0322266,0.671875-6.8154297,0.671875
	c-5.5683594,0-11.7128906-0.671875-11.7128906-8.2080078c0-6.1445312,3.9355469-6.9609375,7.4394531-7.4892578l8.3535156-1.34375
	v-1.2958984c0-1.2958984-0.1445312-2.1123047-1.1523438-2.5917969c-0.671875-0.3359375-1.8242188-0.4804688-3.4082031-0.4804688
	c-3.1201172,0-6.7685547,1.0087891-8.0644531,1.2958984c-0.0966797,0.0488281-0.2402344,0.0966797-0.3359375,0.0966797
	c-0.2880859,0-0.4804688-0.1445312-0.5283203-0.4326172l-0.7197266-3.3115234
	c-0.0488281-0.0957031-0.0488281-0.1445312-0.0488281-0.2402344c0-0.4316406,0.3359375-0.6240234,0.5761719-0.7197266
	c1.0566406-0.4326172,5.5683594-1.7285156,10.7050781-1.7285156c3.3603516,0,5.7119141,0.4804688,7.296875,1.3925781
	c2.4003906,1.2958984,3.0722656,3.5039062,3.0722656,6.1914062v13.2011719
	C219.40625,34.7070312,218.0625,35.3310547,214.75,36.0507812z M212.0625,24.0976562l-5.1376953,0.8164062
	c-1.8232422,0.2880859-3.4072266,0.6240234-3.4072266,3.5039062c0,3.359375,2.6875,3.6474609,4.6074219,3.6474609
	c1.7763672,0,3.3125-0.3359375,3.9375-0.5273438V24.0976562z"/>
<path fill="#FFFFFF" d="M263.7109375,36.0986328h-5.8554688c-0.4794922,0-0.8164062-0.2880859-0.8164062-0.7197266V18.7216797
	c0-2.6396484-1.2480469-3.5039062-3.4560547-3.5039062c-2.2558594,0-4.8955078,0.5761719-4.8955078,0.5761719v19.5849609
	c0,0.4316406-0.2880859,0.7197266-0.7207031,0.7197266h-5.8554688c-0.4804688,0-0.8164062-0.2880859-0.8164062-0.7197266V18.7216797
	c0-2.6396484-1.0556641-3.5039062-3.2636719-3.5039062c-2.3037109,0-5.0878906,0.6240234-5.0878906,0.6240234v19.5380859
	c0,0.4316406-0.2880859,0.7197266-0.7685547,0.7197266h-5.8554688c-0.4804688,0-0.7685547-0.2880859-0.7685547-0.7197266V14.4501953
	c0-1.8242188,1.2001953-2.4003906,3.984375-3.0722656c2.4003906-0.5761719,6.2890625-1.1044922,9.3613281-1.1044922
	c2.9755859,0,5.0878906,0.671875,6.3837891,1.6328125c0.8642578-0.3369141,5.2324219-1.6328125,9.4570312-1.6328125
	c6.0488281,0,9.7451172,1.4404297,9.7451172,7.4404297v17.6660156
	C264.4794922,35.8105469,264.1914062,36.0986328,263.7109375,36.0986328z"/>
<path fill="#FFFFFF" d="M284.0136719,36.7226562c-2.5439453,0-4.7519531-0.3359375-6.5283203-0.8642578l0.5283203,3.0244141
	v5.2324219c0,0.671875-0.2402344,1.0556641-0.8642578,1.1513672l-5.4736328,0.9121094h-0.2392578
	c-0.4794922,0-0.8164062-0.2402344-0.8164062-0.8642578V15.7929688c0-2.7363281,1.1044922-3.3603516,3.1689453-4.0322266
	c3.0244141-0.9599609,6.7216797-1.4882812,9.984375-1.4882812c9.5048828,0,10.6083984,5.7119141,10.6083984,13.2490234
	C294.3818359,30.4814453,293.0371094,36.7226562,284.0136719,36.7226562z M282.2363281,15.3125
	c-1.8720703,0-4.2236328,0.6240234-4.2236328,0.6240234v15.3613281c0,0,1.6796875,0.4316406,3.7431641,0.4316406
	c3.8886719,0,5.0888672-1.2490234,5.0888672-8.4003906C286.8457031,15.984375,285.5488281,15.3125,282.2363281,15.3125z"/>
<path fill="#FFFFFF" d="M316.7978516,36.0507812c-1.7763672,0.4316406-4.0322266,0.671875-6.8164062,0.671875
	c-5.5693359,0-11.7138672-0.671875-11.7138672-8.2080078c0-6.1445312,3.9365234-6.9609375,7.4404297-7.4892578l8.3535156-1.34375
	v-1.2958984c0-1.2958984-0.1445312-2.1123047-1.1523438-2.5917969c-0.671875-0.3359375-1.8232422-0.4804688-3.4072266-0.4804688
	c-3.1201172,0-6.7695312,1.0087891-8.0644531,1.2958984c-0.0966797,0.0488281-0.2402344,0.0966797-0.3359375,0.0966797
	c-0.2880859,0-0.4804688-0.1445312-0.5283203-0.4326172l-0.7197266-3.3115234
	c-0.0488281-0.0957031-0.0488281-0.1445312-0.0488281-0.2402344c0-0.4316406,0.3369141-0.6240234,0.5761719-0.7197266
	c1.0566406-0.4326172,5.5673828-1.7285156,10.7041016-1.7285156c3.3603516,0,5.7138672,0.4804688,7.2978516,1.3925781
	c2.3994141,1.2958984,3.0712891,3.5039062,3.0712891,6.1914062v13.2011719
	C321.453125,34.7070312,320.1083984,35.3310547,316.7978516,36.0507812z M314.1083984,24.0976562l-5.1367188,0.8164062
	c-1.8242188,0.2880859-3.4082031,0.6240234-3.4082031,3.5039062c0,3.359375,2.6884766,3.6474609,4.6083984,3.6474609
	c1.7753906,0,3.3115234-0.3359375,3.9365234-0.5273438V24.0976562L314.1083984,24.0976562z"/>
<path fill="#FFFFFF" d="M334.9384766,36.0986328h-5.8564453c-0.4316406,0-0.7675781-0.2880859-0.7675781-0.7197266V12.1923828
	c0-0.4316406,0.3359375-0.7197266,0.7675781-0.7197266h5.8564453c0.4326172,0,0.7685547,0.2880859,0.7685547,0.7197266v23.1865234
	C335.7070312,35.8105469,335.3710938,36.0986328,334.9384766,36.0986328z M334.3144531,8.0166016h-4.6083984
	c-0.9111328,0-1.34375-0.3359375-1.34375-1.2480469V1.2480469c0-0.8642578,0.4326172-1.2480469,1.34375-1.2480469h4.6083984
	c0.9121094,0,1.3447266,0.3837891,1.3447266,1.2480469v5.5205078
	C335.6591797,7.6806641,335.2275391,8.0166016,334.3144531,8.0166016z"/>
<path fill="#FFFFFF" d="M368.8769531,14.5449219c0,0.1435547-0.0966797,0.3359375-0.3847656,0.5283203
	c-1.0078125,0.7197266-2.2080078,1.0078125-3.359375,1.0078125c-0.8164062,0-0.9121094-0.0966797-2.0166016-0.2880859
	c0.7685547,0.6240234,1.96875,2.1123047,1.96875,4.3193359c0,5.8564453-4.5615234,7.7773438-10.4169922,7.7773438h-2.8808594
	c-1.6328125,0-2.2080078,0.7685547-2.2080078,1.9677734c0,1.6328125,1.1513672,1.8730469,3.6005859,1.8730469h4.5605469
	c4.2724609,0,8.9296875,1.0566406,8.9296875,6.7207031c0,6.1445312-5.2802734,8.4003906-12.4814453,8.4003906
	c-8.2080078,0-12.4804688-1.34375-12.4804688-6.0966797c0-4.4160156,3.5527344-4.6083984,5.2802734-5.0400391v-0.7695312
	c-2.2080078-0.4794922-4.4160156-0.4316406-4.4160156-4.1279297c0-3.2646484,2.3994141-3.6953125,5.3759766-4.1767578
	c-1.6318359-0.4316406-5.5205078-1.4394531-5.5205078-7.1513672c0-6.8652344,4.2714844-9.2177734,11.3291016-9.2177734
	c3.1201172,0,4.3681641,0.3847656,6.2392578,0.9121094c0.5283203,0.1445312,1.1523438,0.1923828,1.8730469,0.1923828
	s1.5839844-0.0957031,2.3046875-0.2880859c0.8632812-0.2402344,1.7753906-0.7197266,2.4960938-1.0556641
	c0.1445312-0.0488281,0.3359375-0.1445312,0.4326172-0.1445312c0.2392578,0,0.3837891,0.1445312,0.4785156,0.4804688
	l1.2001953,3.7919922C368.828125,14.3046875,368.8769531,14.4492188,368.8769531,14.5449219z M355.6757812,37.0107422h-3.2646484
	c-1.6328125,0-3.6005859,0.2880859-3.6005859,2.6396484c0,2.4003906,1.9677734,3.0244141,5.5683594,3.0244141
	c3.0712891,0,5.2314453-0.671875,5.2314453-3.2158203C359.6113281,37.203125,357.8359375,37.0107422,355.6757812,37.0107422z
	 M353.9472656,14.3046875c-3.359375,0-4.3193359,1.6318359-4.3193359,4.7519531s0.9599609,4.7998047,4.3193359,4.7998047
	c3.3125,0,4.2724609-1.6796875,4.2724609-4.7998047S357.2597656,14.3046875,353.9472656,14.3046875z"/>
<path fill="#FFFFFF" d="M394.5087891,36.0986328h-5.8564453c-0.4794922,0-0.8154297-0.2880859-0.8154297-0.7197266V18.7216797
	c0-2.6396484-1.0576172-3.5039062-3.265625-3.5039062c-2.2558594,0-4.8476562,0.6240234-4.8476562,0.6240234v19.5380859
	c0,0.4316406-0.2880859,0.7197266-0.7695312,0.7197266h-5.8554688c-0.4804688,0-0.7695312-0.2880859-0.7695312-0.7197266V14.4501953
	c0-1.8242188,1.2001953-2.4003906,3.984375-3.0722656c2.4003906-0.5761719,6.1933594-1.1044922,9.2167969-1.1044922
	c6.0976562,0,9.7451172,1.4404297,9.7451172,7.4404297v17.6660156
	C395.2753906,35.8105469,394.9394531,36.0986328,394.5087891,36.0986328z"/>
</svg>
